name D:\school\WTK\thesis\model\3dpredictsim\Results\batch_windlass\Pog_s1_tmt_aCst_d00_k1000_WL10_ig24_pas.mot
datacolumns 128
datarows 4
range 1.07327541 1.10547367
endheader
time	pelvis_tilt	pelvis_list	pelvis_rotation	pelvis_tx	pelvis_ty	pelvis_tz	hip_flexion_l	hip_adduction_l	hip_rotation_l	hip_flexion_r	hip_adduction_r	hip_rotation_r	knee_angle_l	knee_angle_r	ankle_angle_l	ankle_angle_r	subtalar_angle_l	subtalar_angle_r	tmt_angle_l	tmt_angle_r	mtp_angle_l	mtp_angle_r	lumbar_extension	lumbar_bending	lumbar_rotation	arm_flex_l	arm_add_l	arm_rot_l	arm_flex_r	arm_add_r	arm_rot_r	elbow_flex_l	elbow_flex_r	pro_sup_l	pro_sup_r	glut_med1_l/activation	glut_med2_l/activation	glut_med3_l/activation	glut_min1_l/activation	glut_min2_l/activation	glut_min3_l/activation	semimem_l/activation	semiten_l/activation	bifemlh_l/activation	bifemsh_l/activation	sar_l/activation	add_long_l/activation	add_brev_l/activation	add_mag1_l/activation	add_mag2_l/activation	add_mag3_l/activation	tfl_l/activation	pect_l/activation	grac_l/activation	glut_max1_l/activation	glut_max2_l/activation	glut_max3_l/activation	iliacus_l/activation	psoas_l/activation	quad_fem_l/activation	gem_l/activation	peri_l/activation	rect_fem_l/activation	vas_med_l/activation	vas_int_l/activation	vas_lat_l/activation	med_gas_l/activation	lat_gas_l/activation	soleus_l/activation	tib_post_l/activation	flex_dig_l/activation	flex_hal_l/activation	tib_ant_l/activation	per_brev_l/activation	per_long_l/activation	per_tert_l/activation	ext_dig_l/activation	ext_hal_l/activation	ercspn_l/activation	intobl_l/activation	extobl_l/activation	glut_med1_r/activation	glut_med2_r/activation	glut_med3_r/activation	glut_min1_r/activation	glut_min2_r/activation	glut_min3_r/activation	semimem_r/activation	semiten_r/activation	bifemlh_r/activation	bifemsh_r/activation	sar_r/activation	add_long_r/activation	add_brev_r/activation	add_mag1_r/activation	add_mag2_r/activation	add_mag3_r/activation	tfl_r/activation	pect_r/activation	grac_r/activation	glut_max1_r/activation	glut_max2_r/activation	glut_max3_r/activation	iliacus_r/activation	psoas_r/activation	quad_fem_r/activation	gem_r/activation	peri_r/activation	rect_fem_r/activation	vas_med_r/activation	vas_int_r/activation	vas_lat_r/activation	med_gas_r/activation	lat_gas_r/activation	soleus_r/activation	tib_post_r/activation	flex_dig_r/activation	flex_hal_r/activation	tib_ant_r/activation	per_brev_r/activation	per_long_r/activation	per_tert_r/activation	ext_dig_r/activation	ext_hal_r/activation	ercspn_r/activation	intobl_r/activation	extobl_r/activation	
          1.07327541	         -2.91668491	         -1.55608142	          6.35087491	          1.34159426	          0.85547789	         -0.00294336	        -18.26998214	         -1.57757789	          8.97080996	         32.03562593	          2.73036063	         -2.28557971	        -10.62389690	        -20.23742955	         -2.83889139	         -1.34427153	         12.29837660	         -4.14009972	         -2.04898107	         -0.07835038	         27.50177877	          0.93540308	         -1.07763841	          0.00262024	         -1.71314991	          5.24145981	        -13.48829077	         16.58849246	         -9.09363781	        -13.69226105	          8.97377260	         34.94612426	         16.96951073	         86.51662706	         86.51662706	          0.25296358	          0.08937903	          0.05000025	          0.29107060	          0.19252196	          0.09568247	          0.05000408	          0.05000053	          0.05000043	          0.06948809	          0.09214495	          0.15723282	          0.07043724	          0.05000499	          0.05000534	          0.05000224	          0.28077440	          0.11137158	          0.05000236	          0.05000635	          0.05000391	          0.05000299	          0.32217684	          0.53077524	          0.05000060	          0.05000134	          0.05000027	          0.18651972	          0.13575454	          0.09667467	          0.06209173	          0.28046374	          0.36241456	          0.24049004	          0.19728671	          0.21853753	          0.27750941	          0.05000005	          0.09085599	          0.16541912	          0.05000034	          0.05000012	          0.05000030	          0.05000005	          0.05000015	          0.05000023	          0.05000222	          0.05000100	          0.05000066	          0.05000200	          0.05000194	          0.05000215	          0.05894399	          0.05660068	          0.19052660	          0.05000097	          0.05000341	          0.11981590	          0.19003896	          0.13425584	          0.15595533	          0.11656026	          0.05000168	          0.05901107	          0.09443843	          0.05000095	          0.10356780	          0.12549985	          0.06422804	          0.06402811	          0.27489663	          0.05013108	          0.05000111	          0.05000089	          0.14981426	          0.15497711	          0.12881233	          0.05894398	          0.05894400	          0.05894396	          0.05000007	          0.05000361	          0.05894238	          0.48270217	          0.30582869	          0.15822421	          0.38438431	          0.63635662	          0.05000089	          0.05000074	          0.10089619	          0.09689272	
          1.08400816	         -2.90086547	         -1.71273864	          6.60661040	          1.35821098	          0.85433217	         -0.00272130	        -17.81861249	         -1.91525517	          8.72419999	         31.45181940	          3.23801950	         -2.01732849	        -13.01584640	        -20.36764098	         -3.88415755	         -1.54020056	         13.40333676	         -4.88504291	         -2.42447172	         -0.09554134	         28.26016840	          1.09200931	         -0.85858007	          0.29927989	         -1.77982350	          4.93625724	        -13.52585344	         16.89611424	        -10.13399020	        -13.68800597	          8.74966368	         35.94751529	         16.88649419	         86.51662706	         86.51662706	          0.21457986	          0.07581705	          0.05000065	          0.24690474	          0.16330947	          0.08116415	          0.06426000	          0.05000047	          0.05000057	          0.05894425	          0.07816357	          0.22441645	          0.24724912	          0.21599627	          0.05002262	          0.05000355	          0.23817099	          0.10426808	          0.05000439	          0.05000285	          0.05000181	          0.05000176	          0.27329086	          0.45023794	          0.05000077	          0.05002834	          0.05894559	          0.15821788	          0.11515832	          0.13420737	          0.13420381	          0.23790711	          0.30742300	          0.20399888	          0.16735115	          0.18537767	          0.23540124	          0.10508309	          0.07707002	          0.14031912	          0.05000036	          0.13422078	          0.05000138	          0.05352116	          0.06948787	          0.05633084	          0.05000011	          0.05000034	          0.05966935	          0.05000023	          0.05000032	          0.05000045	          0.05000022	          0.05000041	          0.16161691	          0.05008257	          0.05894419	          0.10163582	          0.16120349	          0.36451623	          0.26902380	          0.11679587	          0.05000066	          0.05006194	          0.08011066	          0.05006652	          0.12701547	          0.13905570	          0.05448415	          0.06387446	          0.54036233	          0.08191604	          0.05446321	          0.06948750	          0.25177419	          0.25055855	          0.21215656	          0.05000002	          0.05000005	          0.05000000	          0.05000009	          0.05000406	          0.05000041	          0.64357067	          0.25942333	          0.13421583	          0.64057150	          0.68482742	          0.35769520	          0.05000003	          0.08558655	          0.08219055	
          1.09474092	         -2.88051514	         -1.87715405	          6.83364475	          1.37501796	          0.85299935	         -0.00251430	        -17.26653310	         -2.23756435	          8.47180510	         30.70247206	          3.70588470	         -1.66683598	        -15.59188621	        -20.93949694	         -4.94484229	         -1.40223542	         14.42424635	         -5.68970502	         -2.74464390	         -0.21234579	         28.43804927	          1.16262071	         -0.62583839	          0.60882996	         -1.83325305	          4.55924891	        -13.57151480	         17.12263112	        -11.15836947	        -13.69427685	          8.61114789	         36.96435206	         16.77840869	         86.51662706	         86.51662706	          0.22203493	          0.06431294	          0.05197579	          0.20944051	          0.13852961	          0.06884875	          0.09055584	          0.05000343	          0.05894287	          0.05000036	          0.06630360	          0.19328764	          0.35799705	          0.18322253	          0.06950243	          0.10532708	          0.20203317	          0.08844823	          0.05002405	          0.05894564	          0.05894789	          0.05894944	          0.23182268	          0.39849720	          0.05894427	          0.05372376	          0.05000151	          0.13421044	          0.09768475	          0.11384333	          0.11384027	          0.20180788	          0.26077568	          0.17304477	          0.14195792	          0.15724934	          0.19968244	          0.22367627	          0.10405353	          0.13787464	          0.36987002	          0.25428072	          0.15300436	          0.09098977	          0.05894404	          0.05000016	          0.34027324	          0.33754449	          0.36789910	          0.21387090	          0.05000235	          0.35657346	          0.08650662	          0.05000332	          0.14417681	          0.05000014	          0.05000065	          0.08621438	          0.25219671	          0.30920625	          0.23278725	          0.16206412	          0.05000070	          0.06948161	          0.11527967	          0.05000036	          0.19426340	          0.15462485	          0.05001020	          0.05418256	          0.45836962	          0.06948661	          0.19037720	          0.05894374	          0.29228565	          0.29634531	          0.24964823	          0.06105075	          0.06154860	          0.06948780	          0.09144375	          0.05000052	          0.05000136	          0.54591744	          0.22005936	          0.11385040	          0.54337342	          0.58091409	          0.30341995	          0.05049551	          0.07259997	          0.06971924	
          1.10547367	         -2.85893496	         -2.03016230	          7.02941193	          1.39177724	          0.85159027	         -0.00230281	        -16.59236518	         -2.52422457	          8.22229066	         29.74798078	          4.13779503	         -1.29839268	        -18.36406213	        -21.29292145	         -5.91883440	         -1.44202683	         15.32988507	         -6.49913883	         -2.84801928	         -0.21464429	         27.51395055	          1.19529324	         -0.40028499	          0.90478145	         -1.87727024	          4.15323921	        -13.62592229	         17.28912052	        -12.11061382	        -13.70260287	          8.56982397	         37.96060685	         16.61226635	         86.51662706	         86.51662706	          0.18834980	          0.05455444	          0.05000015	          0.23504616	          0.11750988	          0.05840222	          0.12301170	          0.05000081	          0.05000090	          0.05000085	          0.06707923	          0.17641246	          0.30367610	          0.15542121	          0.05895699	          0.08934545	          0.26497049	          0.07503047	          0.05000164	          0.05000415	          0.05000429	          0.05000507	          0.19664683	          0.36387476	          0.05000041	          0.05000103	          0.05000046	          0.11384582	          0.08286247	          0.09656919	          0.09656659	          0.17118623	          0.22120649	          0.14678754	          0.12041833	          0.13338938	          0.16938408	          0.20271099	          0.11030618	          0.11940098	          0.31374741	          0.25581566	          0.12978823	          0.12475278	          0.05000008	          0.05000011	          0.42577933	          0.50820293	          0.56228504	          0.31795784	          0.35348299	          0.35386722	          0.07338070	          0.10700266	          0.12229997	          0.06948781	          0.05000199	          0.07313256	          0.21392928	          0.26228868	          0.19746767	          0.17485883	          0.05000050	          0.05893945	          0.09778824	          0.29008312	          0.25402182	          0.17203320	          0.05000014	          0.05000014	          0.38881828	          0.05894469	          0.16149561	          0.05000006	          0.36390448	          0.37257425	          0.31112756	          0.05178714	          0.05220948	          0.05894396	          0.16715475	          0.08126410	          0.05894479	          0.66140138	          0.18666832	          0.09657514	          0.46092392	          0.57497089	          0.35315543	          0.07260392	          0.06948806	          0.05914029	
